<svg enable-background="new 0 0 100 100" height="35" viewBox="0 0 100 100" width="35" xmlns="http://www.w3.org/2000/svg"><circle cx="50" cy="50.005" fill="#feed32" r="39.416"/><circle cx="50" cy="50.005" fill="#efba1b" r="28.881"/><path d="m48.4417229 70.9195862v-3.1813431c-3.0039444-.170929-5.2640839-1.1247253-6.7818146-2.8622971-1.5181923-1.7375641-2.2772865-4.2420692-2.2772865-7.5152817v-.9077492h5.9175186c0 .1239853-.0083427.3108482-.0240974.5588188-.0166855.2479706-.0245628.4268646-.0245628.5349083 0 1.644577.2757416 2.9083443.8281479 3.7921829.5514793.8847237 1.4120636 1.4276009 2.581295 1.6295204v-10.5644377c-3.1985817-1.6746864-5.4791145-3.3697433-6.8429832-5.0834007-1.3638725-1.7136536-2.0455742-3.7266426-2.0455742-6.0380859 0-2.6833954.7669716-4.8239174 2.301384-6.4224396 1.5339508-1.596756 3.6564522-2.4584541 6.3679733-2.5824394v-3.1873093h2.7518387v3.2342453c2.7916908.0309982 4.9188271.775795 6.3800201 2.2335091 1.4607239 1.4577141 2.1915512 3.5752068 2.1915512 6.351593v.6748352h-5.7715378v-.4879723c0-1.3186722-.2636909-2.3504066-.7910728-3.0952072-.5278435-.7439117-1.2628441-1.1397781-2.2040672-1.1867142v9.5167618c3.7014046 1.830555 6.2298698 3.5760918 7.5853996 5.2357216 1.3555298 1.6596336 2.0335236 3.7301903 2.0335236 6.2125549 0 3.0553513-.8077545 5.4367561-2.422802 7.142437-1.6155128 1.7065735-3.9493408 2.6453171-7.0010147 2.816246v3.1813431zm.2192001-25.8680115-.0245628-8.2831039c-.9416847.0779305-1.6641693.4463463-2.1674538 1.1052399s-.7544632 1.5630989-.7544632 2.7108498c0 .868782.2391319 1.6711464.7183151 2.4079742.4787216.7368278 1.2211342 1.4231719 2.2281647 2.05904zm2.337532 17.9167709c1.0876694-.1868629 1.9153519-.6402969 2.4839783-1.3611832.5681648-.7217712.8522453-1.6791153.8522453-2.8738022 0-1.1787453-.2433014-2.1484909-.7303619-2.9083405-.4870644-.7598534-1.3559952-1.5205956-2.6058617-2.2804451z" fill="#e6e7e8"/><g fill="#ffcb08"><circle cx="50" cy="15.856" r="2.041"/><circle cx="50" cy="84.153" r="2.041"/><circle cx="32.926" cy="20.431" r="2.041"/><circle cx="67.074" cy="79.578" r="2.041"/><circle cx="20.427" cy="32.931" r="2.041"/><circle cx="79.573" cy="67.079" r="2.041"/><circle cx="15.852" cy="50.005" r="2.041"/><circle cx="84.148" cy="50.005" r="2.041"/><circle cx="20.427" cy="67.079" r="2.041"/><circle cx="79.573" cy="32.931" r="2.041"/><circle cx="32.926" cy="79.578" r="2.041"/><circle cx="67.074" cy="20.431" r="2.041"/></g><g fill="#344e5c"><path d="m30.1635723 94.9876862c-.1537914 0-.3066616-.0018463-.4586105-.0055313l.0478878-1.8860092c1.1400776.0340729 2.3358688-.0616989 3.5712624-.2716675l.3140259 1.8602295c-1.1907273.2007522-2.3598119.3029785-3.4745656.3029785z"/><path d="m25.7496834 94.3936996c-1.312748-.3748093-2.5444565-.9356384-3.6615124-1.6649933l1.0263462-1.5821075.0124321.0082855c.9512939.6206894 2.0107937 1.1023178 3.141201 1.4264755z"/><path d="m37.4258156 93.7481461-.5774078-1.7957611c1.1083069-.3563919 2.2585144-.8002625 3.4179344-1.3196564l.7717171 1.720253c-1.2229615.5488586-2.4380913 1.0175934-3.6122437 1.3951645z"/><path d="m44.4785538 90.6179962-.9209061-1.6465759c1.0456848-.5847702 2.1084099-1.2330856 3.1596184-1.9265289l1.0396996 1.5729065c-1.0898858.7201461-2.1931306 1.3933258-3.2784119 2.0001983z"/><path d="m19.0726738 90.0212555c-.8191433-.989975-1.5328426-2.1309738-2.1203804-3.3898468l1.709198-.7975006c.5198498 1.1133652 1.1474438 2.1180725 1.8643684 2.9855652z"/><path d="m50.8834343 86.4076309-1.1354752-1.5065994c.963726-.726593 1.9412651-1.5075226 2.9054527-2.3206787l1.2165108 1.4402924c-.9904327.8361816-1.9955978 1.6392059-2.9864883 2.3869857z"/><path d="m15.6496763 82.9072723c-.3002148-1.2026978-.5221519-2.4965668-.6593666-3.8456879l1.8758802-.1915512c.1284657 1.2597961.3347473 2.4643402.6133213 3.5804749z"/><path d="m56.7233429 81.4853973-1.2865028-1.379509c.8928146-.8324966 1.7893143-1.7101212 2.6650925-2.6061554l1.3491249 1.3187332c-.8960381.916298-1.8137208 1.8141786-2.7277146 2.6669312z"/><path d="m62.0562935 76.0373383-1.4034576-1.2597961c.8292732-.9245911 1.6493378-1.875885 2.4371719-2.8290176l1.4531822 1.2026978c-.8034859.9715574-1.6405869 1.9431074-2.4868965 2.8861159z"/><path d="m16.7064133 75.2085266-1.8860102-.0165787c.0105906-1.2340088.0815001-2.528801.2104263-3.8475342l1.8768015.1841812c-.1234016 1.2625581-.1910877 2.501175-.2012176 3.6799317z"/><path d="m66.912674 70.1721039-1.4983063-1.145607c.74823-.9779968 1.4927826-1.9909897 2.2129288-3.0095062l1.5397491 1.0885086c-.7334976 1.037857-1.4918594 2.0692672-2.2543716 3.0666046z"/><path d="m71.3219604 63.9348259-.8044128-.4926834-.7753983-.5368881c.6754837-1.0341721 1.3389969-2.0904503 1.9734955-3.1430397l1.6152649.9743156c-.6464767 1.0719299-1.3219528 2.1475449-2.0089493 3.1982956z"/><path d="m75.2348785 57.4415359-1.6502609-.9135361c.5995102-1.0839005 1.1865845-2.1954308 1.7446518-3.3023567l1.6843338.8490715c-.5691223 1.1290284-1.1677093 2.2617379-1.7787247 3.3668213z"/><path d="m78.6583328 50.6397476-1.7174835-.7790871c.5198517-1.1456032 1.0148392-2.2985725 1.4711456-3.4285202l1.7487946.70541c-.4664383 1.1548119-.97155 2.3335686-1.5024567 3.5021973z"/><path d="m81.5094528 43.5708923-1.7791824-.6262131c.4171677-1.1852036.8039474-2.3759308 1.1497421-3.5408745l1.8077316.535965c-.3545456 1.1953354-.7509918 2.4164505-1.1782913 3.6311226z"/><path d="m83.676796 36.2469482-1.8344345-.4365082c.2928467-1.2312469.5442505-2.4542046.7477722-3.6348038l1.8583832.3204727c-.2099686 1.2192765-.4696656 2.4809152-.7717209 3.7508393z"/><path d="m84.96698 28.6927795-1.8768005-.1841793c.1234055-1.2588749.192009-2.4974899.2039795-3.680851l1.8860168.0184193c-.0128937 1.2395344-.0842667 2.5334034-.2131958 3.846611z"/><path d="m83.1362305 21.1653175c-.1266251-1.2616367-.3319855-2.4652576-.6091766-3.580471l1.829834-.4549274c.2992935 1.2017784.5203094 2.4956474.6561432 3.8456917z"/><path d="m81.3501358 14.2005262c-.5184708-1.1152134-1.1437607-2.1208401-1.8593063-2.9901724l1.456871-1.1990166c.8163834.992734 1.5273209 2.134654 2.1125565 3.3935289z"/><path d="m56.4642792 11.0253668c-.0376968.0188789-.0848389.0471964-.1225929.0754566-1.0090218-.169734-2.0274277-.2923288-3.0647659-.3772249.7638321-.4808836 1.5182228-.9335651 2.2726746-1.3484898z"/><path d="m59.7586403 9.3667049-.7698784-1.7220888c1.2238808-.5470161 2.439476-1.0148354 3.6136246-1.3914847l.5755653 1.7957616c-1.1083069.3554687-2.2585144.7984228-3.4193115 1.3178119z"/><path d="m76.8957291 8.8694172.5368881-.7754002-.5428772.7707959c-.9600372-.626214-2.010788-1.1060047-3.1329117-1.4292417l.5230713-1.8123374c1.3021622.3757286 2.5242004.9337959 3.6320419 1.6576257l-.4793243.8131575z"/><path d="m66.702713 7.180481-.3112717-1.8602242c1.184288-.1979942 2.3432388-.2983727 3.4450989-.2983727l.4857788.0064464-.0451202 1.8860095-.4461823-.0064464c-.9922714.0000001-2.0467071.0920902-3.1283035.2725874z"/></g><path d="m77.9082031 92.7273254c-2.3197555 1.5182267-5.0450515 2.2726746-8.0815582 2.2726746-4.5641098 0-9.8260956-1.6974564-15.4558067-5.0450516-.3677864-.2168732-.7355728-.4431839-1.1033592-.6696167-8.7981949-5.5354309-17.4927292-14.4845352-24.5935249-25.3479729-7.3271676-11.2216682-11.8441392-22.8678131-13.277526-32.8165588-1.5842409-10.9293957.5375195-19.8219242 6.6953115-23.8391342 6.0635147-3.9606321 14.8146286-2.7347374 24.6407242 3.4419332-1.0278435.0848961-2.0557442.2074909-3.0647659.3772249-8.2229767-4.6207471-15.6255989-5.4599781-20.5480575-2.2443567-5.1770878 3.3854132-7.166872 10.6465044-6.2426872 19.7748413 1.0278435 10.0524063 5.6014519 22.3680496 13.3812408 34.2687683 7.2422714 11.0897446 16.1442413 20.1142502 25.0744705 25.43293.3300858.1979904.6695518.3865509.9995804.5751038 8.3173141 4.6867065 15.5784607 5.4883499 20.548111 2.2444687 4.9130249-3.2063522 7.1291199-10.3259735 6.195549-19.7089386.5469055-.8391724 1.0561676-1.6973419 1.5371094-2.5743866.0471344.0849533.0848389.1792297.0942764.2829514 1.6031188 11.2971811-.8109742 19.6710672-6.7990876 23.5751199z" fill="#e6e7e8"/></svg>